<?xml version="1.0" standalone="no"?>
<!DOCTYPE svg PUBLIC "-//W3C//DTD SVG 20010904//EN"
 "http://www.w3.org/TR/2001/REC-SVG-20010904/DTD/svg10.dtd">
<svg version="1.0" xmlns="http://www.w3.org/2000/svg"
 width="205.000000pt" height="205.000000pt" viewBox="0 0 205.000000 205.000000"
 preserveAspectRatio="xMidYMid meet">
<metadata>
Created by potrace 1.14, written by Peter Selinger 2001-2017
</metadata>
<g transform="translate(0.000000,205.000000) scale(0.100000,-0.100000)"
fill="#000000" stroke="none">
<path d="M1012 1773 c-6 -2 -10 -9 -6 -14 3 -5 0 -9 -6 -9 -6 0 -8 -4 -5 -10
3 -5 1 -10 -5 -10 -5 0 -18 -16 -27 -35 -9 -19 -21 -31 -26 -28 -6 3 -7 1 -3
-5 4 -7 -5 -24 -21 -39 -15 -14 -21 -23 -13 -18 8 5 4 -4 -9 -18 -14 -15 -21
-27 -17 -27 4 0 -5 -11 -20 -25 -15 -14 -24 -28 -21 -32 4 -3 -7 -19 -23 -35
-16 -15 -24 -28 -17 -29 6 0 2 -5 -10 -11 -19 -9 -37 -41 -34 -60 1 -5 -5 -8
-13 -8 -8 0 -17 -7 -20 -16 -4 -10 -1 -13 7 -9 6 3 2 -2 -10 -11 -13 -9 -23
-23 -23 -30 0 -8 -4 -14 -8 -14 -5 0 -17 -16 -28 -35 -10 -19 -22 -35 -26 -35
-4 0 -16 -20 -27 -44 -11 -24 -28 -47 -37 -50 -9 -4 -14 -9 -11 -12 2 -3 -6
-17 -19 -31 -13 -14 -24 -32 -24 -38 0 -7 -7 -16 -16 -19 -8 -3 -13 -10 -10
-15 4 -5 1 -16 -6 -23 -46 -49 -62 -72 -43 -58 20 14 20 14 1 -7 -10 -13 -23
-20 -29 -16 -5 3 -7 2 -4 -4 4 -5 -2 -19 -12 -29 -9 -11 -15 -26 -13 -33 3 -8
1 -11 -4 -8 -11 6 -35 -18 -27 -27 4 -3 0 -6 -7 -6 -7 0 -10 -3 -7 -7 4 -3 -1
-12 -11 -20 -10 -9 -11 -12 -2 -7 8 4 2 -5 -13 -19 -17 -16 -25 -32 -21 -40 4
-6 3 -9 -1 -4 -5 4 -19 -11 -32 -33 -14 -23 -29 -37 -35 -34 -7 4 -8 2 -4 -5
4 -7 -10 -32 -33 -60 -23 -27 -41 -54 -41 -60 0 -6 -4 -11 -10 -11 -5 0 -9 -3
-8 -7 4 -14 -23 -54 -31 -48 -5 2 -8 -3 -7 -13 0 -9 -4 -16 -11 -15 -7 2 -10
-3 -7 -11 3 -7 -2 -16 -10 -19 -9 -4 -16 -13 -16 -22 0 -8 -5 -15 -11 -15 -6
0 -8 -7 -5 -16 3 -8 2 -12 -4 -9 -6 3 -10 1 -10 -4 0 -6 5 -11 11 -11 5 0 8
-3 5 -8 -2 -4 15 -8 39 -8 24 0 42 4 39 7 -5 9 17 6 33 -4 6 -4 15 -3 18 3 5
8 11 8 20 0 8 -7 15 -7 19 -1 7 10 24 10 43 -2 6 -4 14 -3 17 2 7 10 31 9 42
-2 4 -3 15 -2 25 3 12 7 20 7 24 0 4 -6 12 -7 18 -3 16 10 38 13 33 4 -3 -4 6
-7 19 -7 13 0 22 3 19 7 -5 9 23 5 32 -4 10 -10 26 -9 20 1 -3 5 1 9 9 9 8 0
12 -4 9 -9 -3 -4 2 -8 10 -8 8 0 17 4 20 9 7 10 25 9 43 -2 6 -4 14 -3 17 2 7
10 25 9 43 -2 6 -4 14 -3 17 2 7 10 25 9 43 -2 6 -4 14 -3 17 2 7 10 25 9 43
-2 6 -4 14 -1 16 5 4 10 6 9 6 -1 1 -11 4 -11 16 -1 11 9 15 9 15 1 0 -7 5 -9
13 -4 18 11 36 12 43 2 3 -5 11 -6 17 -2 17 11 57 11 63 1 8 -13 26 -9 18 5
-6 9 -4 9 7 -1 15 -14 43 -17 35 -3 -4 5 2 8 11 6 10 -2 18 -4 18 -5 0 -1 8
-3 18 -5 9 -2 15 0 12 5 -6 10 15 8 32 -3 6 -4 15 -3 18 3 5 8 11 8 20 0 8 -7
15 -7 19 -1 7 10 24 10 43 -2 6 -4 14 -3 17 2 7 10 31 9 42 -2 4 -4 13 -2 20
4 8 7 14 7 19 -1 3 -5 13 -10 21 -10 8 0 13 4 10 9 -4 5 2 8 11 6 10 -2 18 -4
18 -5 0 -1 8 -3 18 -5 9 -2 15 0 12 5 -6 10 15 8 32 -3 6 -4 15 -3 18 3 5 8
11 8 20 0 8 -7 15 -7 19 -1 7 10 24 10 43 -2 6 -4 14 -3 17 2 7 10 31 9 42 -2
4 -3 15 -2 25 3 12 7 20 7 24 0 4 -6 12 -7 18 -3 17 11 57 11 63 1 3 -4 11 -5
17 -1 17 11 67 12 61 2 -3 -5 2 -9 10 -9 8 0 17 4 20 9 7 10 25 9 43 -2 6 -4
14 -3 17 2 7 10 25 9 42 -2 6 -3 14 -3 18 0 9 9 37 13 32 4 -3 -3 15 -7 38 -7
33 0 42 4 43 18 1 10 -2 18 -8 18 -5 0 -9 9 -9 20 0 11 -4 20 -10 20 -5 0 -10
5 -10 10 0 6 -9 20 -20 32 -10 12 -17 26 -13 31 4 6 1 7 -6 3 -8 -5 -14 0 -18
13 -3 12 -9 21 -14 21 -5 0 -9 7 -9 15 0 8 -5 15 -12 15 -6 0 -8 3 -5 7 4 3
-1 12 -11 20 -10 9 -11 11 -2 7 13 -7 13 -5 1 9 -7 9 -18 14 -24 10 -5 -3 -7
-1 -4 4 4 6 0 16 -8 23 -8 7 -15 16 -15 21 0 14 -33 48 -42 43 -4 -3 -5 2 -2
11 4 9 -2 23 -15 34 -11 10 -18 21 -14 25 3 3 1 6 -6 6 -7 0 -9 5 -6 10 3 6
-1 10 -9 10 -9 0 -16 9 -16 20 0 11 -5 20 -12 20 -6 0 -8 3 -5 7 4 3 -2 12
-13 20 -11 8 -20 21 -20 29 0 8 -4 14 -10 14 -5 0 -10 7 -10 15 0 8 -5 15 -11
15 -5 0 -7 5 -4 10 3 6 -1 10 -9 10 -9 0 -15 6 -13 13 1 6 -3 11 -8 10 -6 -1
-12 8 -12 20 -1 11 -9 25 -18 29 -8 5 -13 13 -10 19 4 5 -1 9 -10 9 -9 0 -13
5 -10 10 4 6 -5 24 -19 41 -14 17 -26 35 -26 40 0 6 -4 7 -10 4 -5 -3 -10 -1
-10 4 0 6 0 13 0 16 0 3 -9 14 -20 25 -12 12 -18 25 -15 30 3 5 0 12 -6 16 -8
4 -9 3 -5 -4 4 -7 4 -12 1 -12 -3 0 -13 16 -21 35 -8 19 -19 35 -24 35 -6 0
-9 3 -9 8 3 19 -2 33 -11 27 -6 -3 -14 5 -20 19 -5 14 -14 26 -20 26 -6 0 -8
5 -5 10 3 6 1 10 -4 10 -6 0 -11 6 -11 13 0 7 -9 23 -20 35 -12 12 -19 22 -16
22 2 0 -9 14 -25 31 -16 17 -32 42 -35 55 -3 13 -10 24 -14 24 -5 0 -12 9 -15
20 -4 11 -10 18 -15 15 -4 -3 -7 3 -6 13 0 9 -4 16 -11 15 -6 -1 -14 4 -17 13
-4 10 -2 13 7 8 6 -4 3 3 -8 14 -34 36 -45 51 -45 62 0 6 -7 13 -15 16 -8 4
-13 9 -10 14 2 4 -5 17 -16 29 -11 12 -17 26 -14 31 6 10 -20 12 -43 3z m-115
-300 c-3 -5 1 -14 9 -21 8 -7 14 -10 14 -7 0 3 15 -10 34 -30 19 -19 39 -35
45 -35 6 0 11 -4 11 -10 0 -5 7 -10 15 -10 8 0 14 -3 13 -7 -2 -5 2 -10 7 -12
6 -2 22 -16 38 -32 15 -16 27 -26 27 -22 0 4 7 -2 15 -13 8 -10 15 -14 15 -9
0 6 9 -3 20 -20 11 -16 20 -25 20 -20 0 6 5 2 11 -7 5 -10 17 -18 25 -18 8 0
12 -4 9 -10 -3 -5 0 -10 8 -10 7 0 23 -11 35 -25 13 -14 28 -23 34 -19 6 4 8
3 5 -3 -4 -6 5 -18 18 -27 14 -10 23 -22 19 -28 -4 -6 -3 -8 3 -5 6 4 16 0 23
-8 7 -8 16 -12 21 -9 5 3 8 0 7 -8 -2 -7 3 -12 10 -10 6 1 12 -3 12 -8 0 -6
15 -19 33 -30 17 -11 29 -20 25 -20 -13 0 25 -34 54 -49 15 -8 25 -18 22 -23
-3 -4 2 -8 11 -8 9 0 14 -4 11 -9 -3 -5 4 -11 16 -14 12 -4 19 -9 16 -13 -4
-3 0 -13 8 -21 8 -9 13 -22 10 -29 -3 -8 -2 -14 2 -14 4 0 6 -21 6 -47 -1 -27
3 -51 10 -55 8 -6 7 -11 -4 -18 -12 -8 -12 -10 -1 -10 11 0 11 -3 1 -15 -10
-12 -10 -15 0 -15 10 0 10 -3 0 -15 -10 -12 -10 -18 1 -31 7 -8 14 -43 15 -77
1 -34 6 -77 10 -96 4 -21 3 -32 -3 -28 -6 4 -8 -3 -5 -18 4 -21 1 -24 -22 -19
-15 2 -26 0 -26 -6 0 -7 -7 -8 -17 -2 -20 9 -629 9 -638 0 -3 -3 -22 -2 -41 2
-19 5 -37 4 -40 -1 -3 -5 -10 -6 -17 -2 -17 11 -191 9 -199 -2 -5 -7 -8 -7 -8
0 0 6 -33 9 -87 7 -103 -3 -91 -3 -170 1 -35 2 -63 0 -63 -5 0 -5 -8 -5 -17 0
-10 5 -57 7 -105 6 -48 -1 -90 2 -94 7 -3 5 0 8 8 7 8 -2 12 4 10 15 -2 9 4
20 12 23 9 3 13 10 10 15 -3 5 2 12 10 15 9 3 16 15 16 26 0 12 4 17 12 12 8
-5 9 -2 5 10 -4 9 -3 15 1 13 4 -3 13 1 20 9 8 9 9 14 2 14 -7 0 -6 5 2 14 7
8 15 12 18 11 3 -2 12 10 19 26 7 16 17 26 23 23 6 -4 8 -2 4 4 -3 6 0 16 7
24 7 7 13 17 13 21 -1 4 9 19 22 32 14 15 21 30 16 37 -4 7 -4 10 1 6 10 -9
25 7 54 57 14 22 34 48 45 58 12 10 15 16 8 12 -11 -6 -11 -3 -1 13 7 12 17
18 21 16 7 -5 12 10 9 29 0 4 3 7 9 7 5 0 17 16 26 35 9 19 20 35 25 35 5 0 9
9 9 19 0 10 7 22 16 25 9 3 12 11 8 18 -5 8 -2 9 9 5 9 -3 16 -3 14 1 -3 10
44 84 63 99 8 7 11 13 6 13 -6 0 -1 7 10 16 10 8 12 12 4 8 -15 -7 18 35 53
68 10 9 18 19 18 22 -3 21 1 27 13 23 10 -4 12 0 9 14 -3 10 0 19 6 19 6 0 11
6 11 14 0 8 7 17 16 20 8 3 13 10 10 14 -3 5 6 20 20 35 13 14 24 31 24 36 0
6 8 15 18 20 21 13 25 13 19 4z"/>
<path d="M860 1349 c0 -5 -4 -7 -10 -4 -5 3 -10 -1 -10 -9 0 -8 -6 -21 -13
-28 -7 -7 -16 -21 -20 -31 -4 -10 -11 -16 -16 -13 -5 4 -8 -2 -6 -11 1 -10 8
-17 15 -15 7 1 18 -3 26 -9 12 -10 13 -9 8 4 -6 17 9 17 58 1 16 -5 19 -3 12
7 -6 12 -5 12 9 0 13 -10 17 -10 17 -1 0 9 3 10 14 1 11 -9 12 -6 8 14 -2 14
-8 22 -13 19 -5 -3 -9 2 -9 10 0 9 -4 16 -10 16 -5 0 -10 9 -10 21 0 11 -4 17
-10 14 -5 -3 -10 1 -10 9 0 9 -7 16 -15 16 -8 0 -15 -5 -15 -11z"/>
<path d="M902 1187 c-1 -12 -2 -34 -2 -49 0 -16 -5 -28 -10 -28 -6 0 -8 5 -4
12 4 7 3 8 -5 4 -14 -9 -5 -26 15 -26 8 0 12 -5 9 -10 -9 -14 -13 -100 -5 -95
4 2 6 -6 6 -18 -1 -16 4 -21 18 -19 12 2 15 -1 11 -8 -6 -9 -2 -9 14 -1 16 9
21 9 21 -1 0 -9 3 -9 12 0 16 16 48 15 48 0 0 -9 4 -8 10 2 8 13 10 13 10 0 0
-11 3 -11 12 -2 15 15 48 16 48 2 0 -5 5 -10 11 -10 5 0 8 4 5 9 -4 5 0 11 6
14 10 3 9 8 -2 22 -13 17 -13 18 0 11 8 -4 4 2 -9 13 -13 12 -21 24 -18 27 3
4 1 12 -6 19 -7 6 -21 24 -32 40 -11 15 -27 36 -37 46 -9 9 -14 20 -11 23 3 3
-2 8 -11 12 -9 3 -14 9 -12 13 3 4 -10 6 -27 6 -18 -1 -39 2 -47 6 -12 5 -16
2 -18 -14z"/>
<path d="M742 1193 c-6 -3 -10 -9 -6 -14 3 -5 0 -9 -6 -9 -6 0 -8 -5 -5 -10 3
-6 -1 -13 -9 -16 -9 -3 -13 -11 -9 -17 4 -6 0 -8 -8 -5 -10 4 -15 -1 -16 -14
-1 -11 -10 -26 -19 -32 -11 -9 -14 -18 -9 -27 7 -11 5 -11 -10 1 -15 12 -17
12 -10 1 5 -9 2 -18 -9 -27 -10 -7 -17 -15 -17 -18 3 -20 0 -27 -8 -22 -5 4
-7 -3 -4 -13 3 -12 11 -17 19 -14 8 3 14 -1 14 -8 0 -11 3 -11 10 1 6 10 10
11 10 3 0 -7 5 -13 11 -13 5 0 7 5 3 11 -5 8 -1 8 13 0 14 -7 23 -7 32 2 9 9
14 8 21 -3 9 -13 10 -13 10 0 0 12 2 12 9 1 6 -9 10 -10 16 -2 5 9 11 9 23 -1
12 -10 14 -10 8 0 -4 6 -3 12 3 12 5 0 11 -5 13 -12 6 -18 57 20 53 40 -1 9 5
26 14 37 15 18 15 19 0 7 -15 -11 -16 -7 -17 40 0 29 5 59 12 67 8 11 8 13 -1
7 -9 -5 -13 0 -13 18 0 14 -5 28 -12 32 -7 5 -8 3 -3 -6 6 -9 4 -11 -6 -4 -15
9 -77 14 -97 7z"/>
<path d="M559 911 c-1 -3 -1 -10 0 -15 1 -5 -6 -3 -15 5 -10 8 -15 9 -11 2 4
-6 0 -18 -8 -26 -8 -9 -15 -23 -15 -31 0 -9 -7 -16 -16 -16 -8 0 -13 -4 -10
-9 3 -4 -2 -17 -10 -27 -9 -10 -12 -13 -8 -5 4 9 3 12 -4 7 -6 -4 -8 -14 -5
-23 5 -12 3 -14 -7 -8 -10 6 -12 4 -7 -8 3 -10 2 -17 -4 -17 -6 0 -7 -5 -2
-12 4 -7 8 -21 9 -30 1 -10 2 -26 3 -35 1 -16 3 -16 11 -3 6 10 10 11 10 3 0
-7 5 -13 10 -13 6 0 10 8 10 17 0 15 2 14 15 -3 10 -13 14 -14 15 -5 0 11 3
11 15 1 8 -7 15 -8 15 -3 0 7 15 8 40 3 31 -6 40 -4 40 6 0 8 5 14 11 14 5 0
8 -4 4 -9 -3 -5 -1 -12 5 -16 5 -3 10 0 10 7 0 9 3 9 10 -2 9 -13 10 -13 10 0
0 12 2 12 9 2 14 -23 18 5 19 131 0 99 -3 117 -15 113 -8 -3 -11 -1 -8 5 5 7
-15 9 -59 8 -36 -1 -67 -5 -67 -8z"/>
<path d="M749 912 c-2 -12 -6 -27 -8 -32 -8 -18 -8 -61 0 -66 5 -3 6 -11 2
-17 -10 -17 -11 -47 -1 -41 12 8 10 -10 -4 -24 -9 -9 -9 -12 1 -12 11 0 11 -3
0 -17 -10 -11 -10 -14 -1 -9 8 5 12 -1 12 -21 0 -19 3 -24 9 -14 6 10 10 10
16 1 6 -9 10 -9 16 1 8 12 11 11 19 -1 7 -11 10 -11 10 -2 0 9 5 10 19 3 15
-8 20 -7 26 7 6 16 7 16 21 -2 8 -12 14 -15 14 -7 0 11 3 11 15 1 8 -7 15 -8
15 -3 0 6 19 8 43 6 31 -3 38 -1 27 7 -8 5 -10 10 -4 10 7 0 14 9 17 20 3 11
2 18 -3 15 -4 -3 -6 16 -3 43 3 26 5 52 4 57 0 6 -2 26 -3 45 -1 19 -8 40 -14
47 -13 13 -243 18 -245 5z"/>
<path d="M1046 909 c3 -6 0 -16 -6 -24 -9 -11 -9 -15 -1 -15 13 0 10 -22 -4
-32 -6 -5 -6 -8 2 -8 12 0 12 -24 0 -36 -3 -4 -2 -16 4 -27 8 -14 8 -18 0 -13
-6 4 -11 2 -11 -3 0 -6 5 -11 11 -11 8 0 8 -4 0 -14 -9 -11 -9 -16 0 -21 8 -6
7 -10 -2 -16 -10 -6 -8 -9 9 -9 14 0 22 -6 23 -17 0 -13 2 -14 6 -4 5 11 7 11
14 0 7 -11 9 -11 9 -1 0 10 5 10 20 2 15 -8 20 -8 20 2 0 9 3 9 10 -2 9 -13
10 -13 10 0 0 13 1 13 10 0 9 -13 10 -13 10 0 0 13 1 13 10 0 6 -10 10 -11 10
-3 0 9 7 10 25 3 21 -8 25 -6 26 8 0 16 1 16 7 0 7 -17 8 -17 18 0 6 9 10 33
9 52 -2 41 -26 111 -36 105 -4 -3 -12 9 -19 25 -25 59 -39 68 -118 68 -43 0
-70 -4 -66 -9z"/>
<path d="M385 620 c3 -5 -8 -7 -24 -5 -21 2 -28 0 -25 -10 3 -7 -2 -15 -11
-19 -9 -3 -14 -10 -11 -15 3 -5 -1 -12 -10 -15 -8 -3 -12 -10 -9 -16 3 -6 -1
-13 -9 -16 -9 -3 -16 -14 -16 -25 0 -10 -9 -23 -20 -29 -11 -6 -18 -15 -15
-19 3 -5 -2 -11 -10 -15 -26 -10 -17 -33 15 -38 17 -3 30 -2 30 2 0 3 18 6 39
6 22 -1 37 -4 35 -7 -2 -4 7 -6 21 -5 14 0 25 5 25 10 0 5 7 3 15 -4 12 -10
15 -10 15 1 0 9 3 10 8 4 10 -14 62 -16 62 -2 0 8 3 8 12 -1 15 -15 32 -16 23
-2 -3 6 2 10 12 10 16 0 18 9 16 87 -2 120 -3 122 -66 119 -29 -1 -64 1 -80 5
-15 5 -25 4 -22 -1z"/>
<path d="M677 624 c-3 -4 -22 -7 -42 -8 -41 -1 -58 -21 -43 -49 7 -13 7 -17 0
-13 -18 11 -20 -18 -3 -38 15 -18 15 -19 -3 -12 -20 7 -20 7 0 -15 10 -12 13
-19 7 -15 -7 4 -13 4 -14 -1 0 -4 -2 -15 -4 -24 -1 -8 2 -22 9 -30 14 -20 46
-32 46 -17 0 7 4 7 14 -1 11 -9 15 -9 19 1 4 10 6 10 6 1 1 -7 6 -13 12 -13 5
0 8 4 5 8 -3 5 1 9 9 9 8 0 12 -4 9 -9 -3 -4 2 -8 10 -8 9 0 16 5 16 11 0 8 5
8 15 -1 8 -7 15 -8 15 -3 0 6 17 9 38 6 42 -5 85 18 62 32 -9 6 -11 4 -5 -6 5
-8 4 -10 0 -6 -12 10 -15 38 -4 31 12 -7 11 3 -2 28 -6 11 -7 18 -2 15 5 -4
10 7 10 23 0 16 -4 27 -9 24 -13 -9 -9 4 8 20 8 9 11 16 5 16 -6 0 -7 7 -4 17
4 11 3 14 -5 9 -7 -4 -19 0 -28 8 -9 9 -21 13 -27 9 -15 -9 -90 -10 -103 -1
-6 4 -14 5 -17 2z"/>
<path d="M946 619 c2 -4 -11 -6 -29 -4 l-33 3 2 -54 c1 -38 -1 -52 -10 -47 -7
4 -7 2 1 -8 10 -12 10 -18 0 -29 -9 -10 -9 -11 0 -6 8 5 11 -2 9 -21 -2 -16 4
-34 13 -43 16 -15 82 -21 91 -8 3 4 22 3 42 -1 21 -5 38 -5 40 0 2 4 20 4 40
0 21 -5 36 -5 33 -1 -3 5 1 11 7 13 9 4 9 6 -1 6 -11 1 -10 5 5 17 10 8 14 13
7 10 -8 -5 -12 8 -11 44 0 28 -3 54 -6 57 -3 3 2 12 12 20 9 8 11 12 5 8 -9
-4 -13 3 -13 21 0 15 -3 24 -6 21 -4 -3 -14 -2 -23 3 -10 5 -23 5 -31 0 -9 -5
-19 -5 -26 1 -8 7 -14 6 -19 -1 -3 -5 -11 -10 -16 -10 -6 0 -7 6 -3 13 6 9 5
9 -8 0 -8 -7 -18 -10 -21 -6 -9 9 -57 11 -51 2z"/>
<path d="M1205 616 c-17 -9 -20 -22 -19 -78 0 -46 -3 -65 -10 -61 -6 4 -5 -1
3 -10 7 -9 11 -28 9 -41 -4 -19 0 -25 18 -29 13 -2 25 0 26 4 2 4 20 4 40 0
20 -5 38 -5 40 0 2 4 20 4 41 0 24 -6 37 -5 37 1 0 7 5 6 14 -1 11 -9 15 -8
20 5 3 9 4 20 0 25 -3 5 1 9 8 9 9 0 9 3 -2 10 -8 5 -10 10 -4 10 8 0 9 11 4
35 -5 23 -4 36 4 39 7 3 7 5 -1 5 -7 1 -13 6 -13 12 0 5 6 7 13 4 6 -4 5 -1
-4 7 -9 7 -14 19 -11 27 3 8 0 11 -7 7 -6 -4 -14 -1 -17 7 -4 11 -21 14 -67
13 -34 -1 -71 1 -82 5 -12 4 -30 2 -40 -5z"/>
<path d="M1460 490 c-13 -8 -13 -10 0 -10 11 0 11 -3 2 -12 -17 -17 -15 -28 6
-29 10 0 12 -3 5 -6 -20 -7 -15 -30 7 -36 11 -3 18 -1 15 3 -3 4 3 6 13 3 12
-3 19 1 19 11 0 9 -4 16 -9 16 -4 0 -8 7 -8 15 0 8 -5 15 -11 15 -5 0 -7 5 -4
10 3 6 -1 10 -10 10 -9 0 -13 5 -10 10 8 12 4 12 -15 0z"/>
</g>
</svg>
