<svg width="45" height="45" viewBox="0 0 45 45" fill="none" xmlns="http://www.w3.org/2000/svg">
<g id="ph:plus-thin">
<path id="Vector" d="M6.32812 22.5C6.32812 22.6865 6.4022 22.8653 6.53407 22.9972C6.66593 23.129 6.84477 23.2031 7.03125 23.2031H21.7969V37.9688C21.7969 38.1552 21.871 38.3341 22.0028 38.4659C22.1347 38.5978 22.3135 38.6719 22.5 38.6719C22.6865 38.6719 22.8653 38.5978 22.9972 38.4659C23.129 38.3341 23.2031 38.1552 23.2031 37.9688V23.2031H37.9688C38.1552 23.2031 38.3341 23.129 38.4659 22.9972C38.5978 22.8653 38.6719 22.6865 38.6719 22.5C38.6719 22.3135 38.5978 22.1347 38.4659 22.0028C38.3341 21.871 38.1552 21.7969 37.9688 21.7969H23.2031V7.03125C23.2031 6.84477 23.129 6.66593 22.9972 6.53407C22.8653 6.4022 22.6865 6.32812 22.5 6.32812C22.3135 6.32812 22.1347 6.4022 22.0028 6.53407C21.871 6.66593 21.7969 6.84477 21.7969 7.03125V21.7969H7.03125C6.84477 21.7969 6.66593 21.871 6.53407 22.0028C6.4022 22.1347 6.32812 22.3135 6.32812 22.5Z" fill="#397774"/>
</g>
</svg>
